<svg width="294" height="209" viewBox="0 0 294 209" fill="none" xmlns="http://www.w3.org/2000/svg">
<rect width="294" height="165" rx="10" fill="#F0F0F0"/>
<rect x="111" y="201" width="72" height="8" rx="4" fill="#F0F0F0"/>
<rect x="10" y="9" width="274" height="147" rx="4" fill="#181818"/>
<path d="M47 63.8C47 61.149 49.149 59 51.8 59H242.2C244.851 59 247 61.149 247 63.8V102.2C247 104.851 244.851 107 242.2 107H51.8C49.149 107 47 104.851 47 102.2V63.8Z" fill="#F0F0F0"/>
<path d="M58.2001 75.8C58.2001 73.149 60.3491 71 63.0001 71H77.4001C80.051 71 82.2001 73.149 82.2001 75.8V90.2C82.2001 92.851 80.051 95 77.4001 95H63.0001C60.3491 95 58.2001 92.851 58.2001 90.2V75.8Z" fill="#181818"/>
<path d="M79.2001 78L67.2001 90L61.7001 84.5L63.1101 83.09L67.2001 87.17L77.7901 76.59L79.2001 78Z" fill="#F0F0F0"/>
<path d="M94.7953 87V78.9828H95.8563V87H94.7953Z" fill="#181818"/>
<path d="M97.5461 80.0438V78.9008H98.6016V79.8031C98.6016 80.2917 98.5451 80.6435 98.4321 80.8586C98.2753 81.1539 98.031 81.3763 97.6993 81.5258L97.4586 81.1375C97.6555 81.0573 97.8013 80.9315 97.8961 80.7602C97.9946 80.5852 98.0493 80.3464 98.0602 80.0438H97.5461Z" fill="#181818"/>
<path d="M100.1 87V81.1922H100.981V82.007C101.163 81.7227 101.405 81.4948 101.708 81.3234C102.01 81.1484 102.355 81.0609 102.741 81.0609C103.172 81.0609 103.523 81.1503 103.797 81.3289C104.074 81.5076 104.269 81.7573 104.382 82.0781C104.841 81.4 105.439 81.0609 106.176 81.0609C106.752 81.0609 107.195 81.2214 107.505 81.5422C107.815 81.8594 107.97 82.3497 107.97 83.0133V87H106.991V83.3414C106.991 82.9477 106.958 82.6651 106.892 82.4938C106.83 82.3188 106.715 82.1784 106.548 82.0727C106.38 81.9669 106.183 81.9141 105.957 81.9141C105.549 81.9141 105.21 82.0508 104.94 82.3242C104.67 82.594 104.535 83.0279 104.535 83.6258V87H103.551V83.2266C103.551 82.7891 103.471 82.4609 103.31 82.2422C103.15 82.0234 102.887 81.9141 102.523 81.9141C102.246 81.9141 101.989 81.987 101.752 82.1328C101.518 82.2787 101.349 82.4919 101.243 82.7727C101.137 83.0534 101.084 83.4581 101.084 83.9867V87H100.1Z" fill="#181818"/>
<path d="M112.547 87V81.1922H113.433V82.018C113.859 81.38 114.476 81.0609 115.281 81.0609C115.631 81.0609 115.952 81.1247 116.244 81.2524C116.539 81.3763 116.76 81.5404 116.906 81.7445C117.051 81.9487 117.153 82.1912 117.212 82.4719C117.248 82.6542 117.266 82.9732 117.266 83.4289V87H116.282V83.4672C116.282 83.0662 116.244 82.7672 116.167 82.5703C116.091 82.3698 115.954 82.2112 115.757 82.0945C115.564 81.9742 115.336 81.9141 115.073 81.9141C114.654 81.9141 114.291 82.0471 113.985 82.3133C113.683 82.5794 113.531 83.0844 113.531 83.8281V87H112.547Z" fill="#181818"/>
<path d="M118.415 84.0961C118.415 83.0206 118.714 82.224 119.312 81.7063C119.811 81.276 120.42 81.0609 121.138 81.0609C121.937 81.0609 122.589 81.3234 123.096 81.8484C123.603 82.3698 123.856 83.0917 123.856 84.0141C123.856 84.7615 123.743 85.3503 123.517 85.7805C123.295 86.207 122.969 86.5388 122.538 86.7758C122.112 87.0128 121.645 87.1313 121.138 87.1313C120.325 87.1313 119.667 86.8706 119.164 86.3492C118.665 85.8279 118.415 85.0768 118.415 84.0961ZM119.427 84.0961C119.427 84.8399 119.589 85.3977 119.913 85.7695C120.238 86.1378 120.646 86.3219 121.138 86.3219C121.627 86.3219 122.033 86.1359 122.358 85.7641C122.682 85.3922 122.845 84.8253 122.845 84.0633C122.845 83.3451 122.681 82.8018 122.352 82.4336C122.028 82.0617 121.623 81.8758 121.138 81.8758C120.646 81.8758 120.238 82.0599 119.913 82.4281C119.589 82.7964 119.427 83.3524 119.427 84.0961Z" fill="#181818"/>
<path d="M127.165 86.1195L127.307 86.9891C127.03 87.0474 126.782 87.0766 126.563 87.0766C126.206 87.0766 125.929 87.0201 125.732 86.907C125.535 86.794 125.397 86.6464 125.316 86.4641C125.236 86.2781 125.196 85.8899 125.196 85.2992V81.9578H124.474V81.1922H125.196V79.7539L126.175 79.1633V81.1922H127.165V81.9578H126.175V85.3539C126.175 85.6346 126.191 85.8151 126.224 85.8953C126.261 85.9755 126.317 86.0393 126.394 86.0867C126.474 86.1341 126.587 86.1578 126.733 86.1578C126.842 86.1578 126.986 86.1451 127.165 86.1195Z" fill="#181818"/>
<path d="M135.04 86.2836C134.675 86.5935 134.323 86.8122 133.984 86.9399C133.649 87.0675 133.288 87.1313 132.902 87.1313C132.264 87.1313 131.773 86.9763 131.431 86.6664C131.088 86.3529 130.916 85.9537 130.916 85.4688C130.916 85.1844 130.98 84.9255 131.108 84.6922C131.239 84.4552 131.409 84.2656 131.616 84.1234C131.828 83.9813 132.065 83.8737 132.327 83.8008C132.521 83.7497 132.812 83.7005 133.202 83.6531C133.997 83.5583 134.582 83.4453 134.958 83.3141C134.961 83.1792 134.963 83.0935 134.963 83.057C134.963 82.656 134.87 82.3734 134.684 82.2094C134.433 81.987 134.059 81.8758 133.563 81.8758C133.1 81.8758 132.758 81.9578 132.535 82.1219C132.316 82.2823 132.154 82.5685 132.048 82.9805L131.086 82.8492C131.173 82.4372 131.317 82.1055 131.518 81.8539C131.719 81.5987 132.008 81.4037 132.388 81.2688C132.767 81.1302 133.206 81.0609 133.706 81.0609C134.201 81.0609 134.604 81.1193 134.914 81.2359C135.224 81.3526 135.452 81.5003 135.598 81.6789C135.744 81.8539 135.846 82.0763 135.904 82.3461C135.937 82.5138 135.953 82.8164 135.953 83.2539V84.5664C135.953 85.4815 135.973 86.0612 136.013 86.3055C136.057 86.5461 136.141 86.7776 136.265 87H135.237C135.135 86.7958 135.069 86.557 135.04 86.2836ZM134.958 84.0852C134.601 84.231 134.065 84.355 133.35 84.457C132.945 84.5154 132.659 84.581 132.491 84.6539C132.324 84.7268 132.194 84.8344 132.103 84.9766C132.012 85.1151 131.966 85.2701 131.966 85.4414C131.966 85.7039 132.065 85.9227 132.262 86.0977C132.462 86.2727 132.754 86.3602 133.137 86.3602C133.516 86.3602 133.853 86.2781 134.148 86.1141C134.444 85.9464 134.661 85.7185 134.799 85.4305C134.905 85.2081 134.958 84.88 134.958 84.4461V84.0852Z" fill="#181818"/>
<path d="M141.509 87H140.596V78.9828H141.581V81.843C141.996 81.3216 142.527 81.0609 143.172 81.0609C143.529 81.0609 143.866 81.1339 144.184 81.2797C144.504 81.4219 144.767 81.6242 144.971 81.8867C145.179 82.1456 145.341 82.4591 145.458 82.8274C145.575 83.1956 145.633 83.5893 145.633 84.0086C145.633 85.0039 145.387 85.7732 144.895 86.3164C144.402 86.8596 143.812 87.1313 143.123 87.1313C142.437 87.1313 141.9 86.8451 141.509 86.2727V87ZM141.498 84.0524C141.498 84.7487 141.593 85.2518 141.783 85.5617C142.093 86.0685 142.512 86.3219 143.041 86.3219C143.471 86.3219 143.843 86.1359 144.156 85.7641C144.47 85.3885 144.627 84.8307 144.627 84.0906C144.627 83.3323 144.475 82.7727 144.173 82.4117C143.874 82.0508 143.511 81.8703 143.084 81.8703C142.654 81.8703 142.282 82.0581 141.969 82.4336C141.655 82.8055 141.498 83.3451 141.498 84.0524Z" fill="#181818"/>
<path d="M146.47 84.0961C146.47 83.0206 146.769 82.224 147.366 81.7063C147.866 81.276 148.475 81.0609 149.193 81.0609C149.991 81.0609 150.644 81.3234 151.151 81.8484C151.658 82.3698 151.911 83.0917 151.911 84.0141C151.911 84.7615 151.798 85.3503 151.572 85.7805C151.35 86.207 151.023 86.5388 150.593 86.7758C150.166 87.0128 149.7 87.1313 149.193 87.1313C148.38 87.1313 147.722 86.8706 147.219 86.3492C146.719 85.8279 146.47 85.0768 146.47 84.0961ZM147.481 84.0961C147.481 84.8399 147.644 85.3977 147.968 85.7695C148.292 86.1378 148.701 86.3219 149.193 86.3219C149.682 86.3219 150.088 86.1359 150.413 85.7641C150.737 85.3922 150.899 84.8253 150.899 84.0633C150.899 83.3451 150.735 82.8018 150.407 82.4336C150.083 82.0617 149.678 81.8758 149.193 81.8758C148.701 81.8758 148.292 82.0599 147.968 82.4281C147.644 82.7964 147.481 83.3524 147.481 84.0961Z" fill="#181818"/>
<path d="M155.22 86.1195L155.362 86.9891C155.085 87.0474 154.837 87.0766 154.618 87.0766C154.261 87.0766 153.984 87.0201 153.787 86.907C153.59 86.794 153.451 86.6464 153.371 86.4641C153.291 86.2781 153.251 85.8899 153.251 85.2992V81.9578H152.529V81.1922H153.251V79.7539L154.23 79.1633V81.1922H155.22V81.9578H154.23V85.3539C154.23 85.6346 154.246 85.8151 154.279 85.8953C154.315 85.9755 154.372 86.0393 154.448 86.0867C154.529 86.1341 154.642 86.1578 154.788 86.1578C154.897 86.1578 155.041 86.1451 155.22 86.1195Z" fill="#181818"/>
<path d="M200.544 91.8V86.0734H202.704C203.084 86.0734 203.374 86.0917 203.575 86.1281C203.856 86.175 204.092 86.2649 204.282 86.3977C204.472 86.5279 204.624 86.7115 204.739 86.9484C204.856 87.1854 204.915 87.4458 204.915 87.7297C204.915 88.2167 204.76 88.6294 204.45 88.968C204.14 89.3039 203.58 89.4719 202.77 89.4719H201.302V91.8H200.544ZM201.302 88.7961H202.782C203.272 88.7961 203.619 88.705 203.825 88.5227C204.031 88.3404 204.134 88.0839 204.134 87.7531C204.134 87.5135 204.072 87.3091 203.95 87.1399C203.83 86.968 203.671 86.8547 203.473 86.8C203.346 86.7662 203.11 86.7492 202.766 86.7492H201.302V88.7961Z" fill="#808080"/>
<path d="M205.528 89.7258C205.528 88.9576 205.742 88.3885 206.169 88.0188C206.526 87.7115 206.96 87.5578 207.473 87.5578C208.044 87.5578 208.51 87.7453 208.872 88.1203C209.234 88.4927 209.415 89.0083 209.415 89.6672C209.415 90.201 209.334 90.6216 209.173 90.9289C209.014 91.2336 208.781 91.4706 208.473 91.6399C208.169 91.8091 207.835 91.8938 207.473 91.8938C206.893 91.8938 206.423 91.7076 206.063 91.3352C205.707 90.9628 205.528 90.4263 205.528 89.7258ZM206.251 89.7258C206.251 90.257 206.367 90.6555 206.598 90.9211C206.83 91.1841 207.122 91.3156 207.473 91.3156C207.822 91.3156 208.113 91.1828 208.345 90.9172C208.576 90.6516 208.692 90.2466 208.692 89.7024C208.692 89.1893 208.575 88.8013 208.341 88.5383C208.109 88.2727 207.82 88.1399 207.473 88.1399C207.122 88.1399 206.83 88.2714 206.598 88.5344C206.367 88.7974 206.251 89.1945 206.251 89.7258Z" fill="#808080"/>
<path d="M211.009 91.8L209.739 87.6516H210.466L211.372 90.9367C211.382 90.8925 211.454 90.6073 211.587 90.0813L212.247 87.6516H212.97L213.591 90.0578L213.798 90.8508L214.036 90.05L214.747 87.6516H215.43L214.134 91.8H213.403L212.743 89.3156L212.583 88.6086L211.743 91.8H211.009Z" fill="#808080"/>
<path d="M218.864 90.4641L219.591 90.5539C219.476 90.9784 219.264 91.3078 218.954 91.5422C218.644 91.7766 218.248 91.8938 217.766 91.8938C217.16 91.8938 216.678 91.7076 216.321 91.3352C215.967 90.9602 215.79 90.4354 215.79 89.7609C215.79 89.063 215.97 88.5214 216.329 88.1359C216.688 87.7505 217.154 87.5578 217.727 87.5578C218.282 87.5578 218.735 87.7466 219.087 88.1242C219.438 88.5018 219.614 89.0331 219.614 89.718C219.614 89.7596 219.613 89.8221 219.61 89.9055H216.516C216.542 90.3612 216.671 90.7102 216.903 90.9524C217.135 91.1945 217.424 91.3156 217.77 91.3156C218.028 91.3156 218.248 91.2479 218.43 91.1125C218.613 90.9771 218.757 90.7609 218.864 90.4641ZM216.555 89.3274H218.872C218.841 88.9784 218.752 88.7167 218.606 88.5422C218.382 88.2714 218.092 88.1359 217.735 88.1359C217.412 88.1359 217.14 88.244 216.919 88.4602C216.7 88.6763 216.579 88.9654 216.555 89.3274Z" fill="#808080"/>
<path d="M220.47 91.8V87.6516H221.102V88.2805C221.264 87.9862 221.412 87.7922 221.548 87.6984C221.686 87.6047 221.837 87.5578 222.001 87.5578C222.238 87.5578 222.479 87.6333 222.723 87.7844L222.481 88.4367C222.309 88.3352 222.138 88.2844 221.966 88.2844C221.812 88.2844 221.674 88.3313 221.552 88.425C221.429 88.5162 221.342 88.6438 221.29 88.8078C221.212 89.0578 221.173 89.3313 221.173 89.6281V91.8H220.47Z" fill="#808080"/>
<path d="M225.981 90.4641L226.708 90.5539C226.593 90.9784 226.381 91.3078 226.071 91.5422C225.761 91.7766 225.365 91.8938 224.884 91.8938C224.277 91.8938 223.795 91.7076 223.438 91.3352C223.084 90.9602 222.907 90.4354 222.907 89.7609C222.907 89.063 223.087 88.5214 223.446 88.1359C223.805 87.7505 224.272 87.5578 224.845 87.5578C225.399 87.5578 225.852 87.7466 226.204 88.1242C226.555 88.5018 226.731 89.0331 226.731 89.718C226.731 89.7596 226.73 89.8221 226.727 89.9055H223.634C223.66 90.3612 223.789 90.7102 224.02 90.9524C224.252 91.1945 224.541 91.3156 224.888 91.3156C225.145 91.3156 225.365 91.2479 225.548 91.1125C225.73 90.9771 225.874 90.7609 225.981 90.4641ZM223.673 89.3274H225.989C225.958 88.9784 225.869 88.7167 225.723 88.5422C225.499 88.2714 225.209 88.1359 224.852 88.1359C224.529 88.1359 224.257 88.244 224.036 88.4602C223.817 88.6763 223.696 88.9654 223.673 89.3274Z" fill="#808080"/>
<path d="M230.286 91.8V91.2766C230.023 91.688 229.636 91.8938 229.126 91.8938C228.795 91.8938 228.49 91.8026 228.212 91.6203C227.936 91.438 227.721 91.1841 227.567 90.8586C227.416 90.5305 227.341 90.1542 227.341 89.7297C227.341 89.3156 227.41 88.9406 227.548 88.6047C227.686 88.2662 227.893 88.007 228.169 87.8274C228.445 87.6477 228.753 87.5578 229.095 87.5578C229.345 87.5578 229.567 87.6112 229.763 87.718C229.958 87.8221 230.117 87.9589 230.239 88.1281V86.0734H230.938V91.8H230.286ZM228.063 89.7297C228.063 90.2609 228.175 90.6581 228.399 90.9211C228.623 91.1841 228.888 91.3156 229.192 91.3156C229.499 91.3156 229.76 91.1906 229.973 90.9406C230.19 90.688 230.298 90.3039 230.298 89.7883C230.298 89.2206 230.188 88.8039 229.97 88.5383C229.751 88.2727 229.481 88.1399 229.161 88.1399C228.848 88.1399 228.587 88.2675 228.376 88.5227C228.167 88.7779 228.063 89.1802 228.063 89.7297Z" fill="#808080"/>
<path d="M234.923 91.8H234.27V86.0734H234.973V88.1164C235.27 87.744 235.649 87.5578 236.11 87.5578C236.365 87.5578 236.606 87.6099 236.833 87.7141C237.062 87.8156 237.249 87.9602 237.395 88.1477C237.544 88.3326 237.66 88.5565 237.743 88.8195C237.826 89.0826 237.868 89.3638 237.868 89.6633C237.868 90.3742 237.692 90.9237 237.341 91.3117C236.989 91.6997 236.567 91.8938 236.075 91.8938C235.585 91.8938 235.201 91.6893 234.923 91.2805V91.8ZM234.915 89.6945C234.915 90.1919 234.983 90.5513 235.118 90.7727C235.339 91.1346 235.639 91.3156 236.016 91.3156C236.324 91.3156 236.589 91.1828 236.813 90.9172C237.037 90.649 237.149 90.2505 237.149 89.7219C237.149 89.1802 237.041 88.7805 236.825 88.5227C236.611 88.2649 236.352 88.1359 236.048 88.1359C235.74 88.1359 235.475 88.2701 235.251 88.5383C235.027 88.8039 234.915 89.1893 234.915 89.6945Z" fill="#808080"/>
<path d="M238.696 93.3977L238.618 92.7375C238.772 92.7792 238.906 92.8 239.02 92.8C239.177 92.8 239.302 92.774 239.395 92.7219C239.489 92.6698 239.566 92.5969 239.626 92.5031C239.67 92.4328 239.742 92.2583 239.841 91.9797C239.854 91.9406 239.874 91.8833 239.903 91.8078L238.329 87.6516H239.087L239.95 90.0539C240.062 90.3586 240.162 90.6789 240.251 91.0149C240.332 90.6919 240.428 90.3768 240.54 90.0695L241.427 87.6516H242.13L240.552 91.8703C240.382 92.326 240.251 92.6399 240.157 92.8117C240.032 93.0435 239.889 93.2128 239.727 93.3195C239.566 93.4289 239.373 93.4836 239.149 93.4836C239.014 93.4836 238.863 93.455 238.696 93.3977Z" fill="#808080"/>
<path d="M216.235 100.6V95.5492H214.348V94.8734H218.888V95.5492H216.993V100.6H216.235Z" fill="#808080"/>
<path d="M221.395 100.088C221.135 100.31 220.884 100.466 220.641 100.557C220.402 100.648 220.144 100.694 219.868 100.694C219.412 100.694 219.062 100.583 218.817 100.362C218.572 100.138 218.45 99.8526 218.45 99.5063C218.45 99.3031 218.496 99.1182 218.587 98.9516C218.68 98.7823 218.802 98.6469 218.95 98.5453C219.101 98.4438 219.27 98.3669 219.458 98.3149C219.596 98.2784 219.804 98.2432 220.083 98.2094C220.651 98.1417 221.069 98.0609 221.337 97.9672C221.339 97.8708 221.341 97.8096 221.341 97.7836C221.341 97.4971 221.274 97.2953 221.141 97.1781C220.962 97.0193 220.695 96.9399 220.341 96.9399C220.01 96.9399 219.765 96.9984 219.606 97.1156C219.45 97.2302 219.334 97.4346 219.259 97.7289L218.571 97.6352C218.634 97.3409 218.736 97.1039 218.88 96.9242C219.023 96.7419 219.23 96.6026 219.501 96.5063C219.772 96.4073 220.085 96.3578 220.442 96.3578C220.796 96.3578 221.084 96.3995 221.305 96.4828C221.527 96.5662 221.69 96.6716 221.794 96.7992C221.898 96.9242 221.971 97.0831 222.013 97.2758C222.036 97.3956 222.048 97.6117 222.048 97.9242V98.8617C222.048 99.5154 222.062 99.9294 222.091 100.104C222.122 100.276 222.182 100.441 222.27 100.6H221.536C221.463 100.454 221.416 100.284 221.395 100.088ZM221.337 98.518C221.082 98.6221 220.699 98.7107 220.188 98.7836C219.899 98.8253 219.695 98.8721 219.575 98.9242C219.455 98.9763 219.363 99.0531 219.298 99.1547C219.233 99.2537 219.2 99.3643 219.2 99.4867C219.2 99.6742 219.27 99.8305 219.411 99.9555C219.554 100.08 219.763 100.143 220.036 100.143C220.307 100.143 220.548 100.084 220.759 99.9672C220.97 99.8474 221.124 99.6846 221.223 99.4789C221.299 99.3201 221.337 99.0857 221.337 98.7758V98.518Z" fill="#808080"/>
<path d="M223.141 102.19V96.4516H223.782V96.9906C223.933 96.7797 224.104 96.6221 224.294 96.518C224.484 96.4112 224.714 96.3578 224.985 96.3578C225.339 96.3578 225.652 96.449 225.923 96.6313C226.194 96.8135 226.398 97.0714 226.536 97.4047C226.674 97.7354 226.743 98.0987 226.743 98.4945C226.743 98.919 226.666 99.3018 226.513 99.643C226.361 99.9815 226.14 100.242 225.848 100.424C225.559 100.604 225.255 100.694 224.934 100.694C224.7 100.694 224.489 100.644 224.302 100.545C224.117 100.446 223.964 100.321 223.845 100.17V102.19H223.141ZM223.778 98.5492C223.778 99.0831 223.886 99.4776 224.102 99.7328C224.319 99.988 224.58 100.116 224.888 100.116C225.2 100.116 225.467 99.9841 225.688 99.7211C225.912 99.4555 226.024 99.0453 226.024 98.4906C226.024 97.962 225.915 97.5662 225.696 97.3031C225.48 97.0401 225.221 96.9086 224.919 96.9086C224.619 96.9086 224.354 97.0492 224.122 97.3305C223.893 97.6091 223.778 98.0154 223.778 98.5492Z" fill="#808080"/>
<path d="M229.13 99.9711L229.231 100.592C229.033 100.634 228.856 100.655 228.7 100.655C228.445 100.655 228.247 100.614 228.106 100.534C227.966 100.453 227.867 100.347 227.809 100.217C227.752 100.084 227.723 99.807 227.723 99.3852V96.9984H227.208V96.4516H227.723V95.4242L228.423 95.0024V96.4516H229.13V96.9984H228.423V99.4242C228.423 99.6247 228.434 99.7537 228.458 99.8109C228.484 99.8682 228.524 99.9138 228.579 99.9477C228.636 99.9815 228.717 99.9984 228.821 99.9984C228.899 99.9984 229.002 99.9893 229.13 99.9711Z" fill="#808080"/>
<path d="M232.528 99.0805L233.22 99.1703C233.144 99.6469 232.95 100.021 232.638 100.291C232.328 100.56 231.946 100.694 231.493 100.694C230.925 100.694 230.468 100.509 230.122 100.139C229.778 99.7667 229.606 99.2341 229.606 98.5414C229.606 98.0935 229.68 97.7016 229.829 97.3656C229.977 97.0297 230.203 96.7784 230.505 96.6117C230.809 96.4425 231.14 96.3578 231.497 96.3578C231.947 96.3578 232.316 96.4724 232.602 96.7016C232.889 96.9281 233.072 97.251 233.153 97.6703L232.47 97.7758C232.404 97.4971 232.289 97.2875 232.122 97.1469C231.958 97.0063 231.759 96.9359 231.524 96.9359C231.17 96.9359 230.882 97.0635 230.661 97.3188C230.44 97.5714 230.329 97.9724 230.329 98.5219C230.329 99.0792 230.436 99.4841 230.649 99.7367C230.863 99.9893 231.141 100.116 231.485 100.116C231.761 100.116 231.992 100.031 232.177 99.8617C232.361 99.6925 232.479 99.432 232.528 99.0805Z" fill="#808080"/>
<path d="M233.821 100.6V94.8734H234.524V96.9281C234.852 96.5479 235.266 96.3578 235.766 96.3578C236.074 96.3578 236.341 96.419 236.567 96.5414C236.794 96.6612 236.955 96.8279 237.052 97.0414C237.151 97.255 237.2 97.5649 237.2 97.9711V100.6H236.497V97.9711C236.497 97.6195 236.42 97.3643 236.266 97.2055C236.115 97.044 235.901 96.9633 235.622 96.9633C235.414 96.9633 235.217 97.018 235.032 97.1274C234.85 97.2341 234.72 97.38 234.641 97.5649C234.563 97.7497 234.524 98.005 234.524 98.3305V100.6H233.821Z" fill="#808080"/>
<path d="M240.981 100.088C240.721 100.31 240.47 100.466 240.227 100.557C239.988 100.648 239.73 100.694 239.454 100.694C238.998 100.694 238.648 100.583 238.403 100.362C238.158 100.138 238.036 99.8526 238.036 99.5063C238.036 99.3031 238.082 99.1182 238.173 98.9516C238.266 98.7823 238.388 98.6469 238.536 98.5453C238.687 98.4438 238.856 98.3669 239.044 98.3149C239.182 98.2784 239.39 98.2432 239.669 98.2094C240.236 98.1417 240.654 98.0609 240.923 97.9672C240.925 97.8708 240.927 97.8096 240.927 97.7836C240.927 97.4971 240.86 97.2953 240.727 97.1781C240.548 97.0193 240.281 96.9399 239.927 96.9399C239.596 96.9399 239.351 96.9984 239.192 97.1156C239.036 97.2302 238.92 97.4346 238.845 97.7289L238.157 97.6352C238.22 97.3409 238.322 97.1039 238.466 96.9242C238.609 96.7419 238.816 96.6026 239.087 96.5063C239.358 96.4073 239.671 96.3578 240.028 96.3578C240.382 96.3578 240.67 96.3995 240.891 96.4828C241.113 96.5662 241.276 96.6716 241.38 96.7992C241.484 96.9242 241.557 97.0831 241.598 97.2758C241.622 97.3956 241.634 97.6117 241.634 97.9242V98.8617C241.634 99.5154 241.648 99.9294 241.677 100.104C241.708 100.276 241.768 100.441 241.856 100.6H241.122C241.049 100.454 241.002 100.284 240.981 100.088ZM240.923 98.518C240.667 98.6221 240.285 98.7107 239.774 98.7836C239.485 98.8253 239.281 98.8721 239.161 98.9242C239.041 98.9763 238.949 99.0531 238.884 99.1547C238.819 99.2537 238.786 99.3643 238.786 99.4867C238.786 99.6742 238.856 99.8305 238.997 99.9555C239.14 100.08 239.348 100.143 239.622 100.143C239.893 100.143 240.134 100.084 240.345 99.9672C240.555 99.8474 240.71 99.6846 240.809 99.4789C240.885 99.3201 240.923 99.0857 240.923 98.7758V98.518Z" fill="#808080"/>
<rect x="128" y="156" width="38" height="45" fill="#F0F0F0"/>
</svg>
